{
	"asset":{
		"generator":"Khronos glTF Blender I/O v4.1.63",
		"version":"2.0"
	},
	"scene":0,
	"scenes":[
		{
			"name":"Scene",
			"nodes":[
				7
			]
		}
	],
	"nodes":[
		{
			"mesh":0,
			"name":"Plane.004",
			"scale":[
				1.2602951526641846,
				1.260295033454895,
				1.2602951526641846
			],
			"translation":[
				0.0014617443084716797,
				0.5783296823501587,
				1.1051366329193115
			]
		},
		{
			"children":[
				0
			],
			"mesh":1,
			"name":"Plane.003",
			"rotation":[
				0.003535580588504672,
				0.0034878947772085667,
				-0.00016757595585659146,
				0.9999877214431763
			],
			"scale":[
				0.4848579466342926,
				0.4848579168319702,
				0.4848579466342926
			],
			"translation":[
				0,
				0.12673020362854004,
				0
			]
		},
		{
			"children":[
				1
			],
			"mesh":2,
			"name":"Circle.001",
			"rotation":[
				-0.8233652710914612,
				0.08686486631631851,
				-0.17036454379558563,
				0.5343220829963684
			],
			"scale":[
				-0.3227996528148651,
				-0.3227996230125427,
				-0.32279959321022034
			],
			"translation":[
				0.005109500139951706,
				0.02630203776061535,
				-0.02204071171581745
			]
		},
		{
			"children":[
				2
			],
			"mesh":3,
			"name":"Plane",
			"rotation":[
				-0.0026232702657580376,
				0.012586522847414017,
				0.01500273123383522,
				0.9998047947883606
			],
			"scale":[
				-2.4010815620422363,
				-2.4010822772979736,
				-2.4010820388793945
			],
			"translation":[
				-0.0005812123417854309,
				2.57212495803833,
				-0.018337596207857132
			]
		},
		{
			"children":[
				3
			],
			"mesh":4,
			"name":"Plane.001",
			"rotation":[
				0.664788007736206,
				-0.03144790604710579,
				0.010926231741905212,
				0.7462899684906006
			],
			"translation":[
				0,
				4.50474214553833,
				0
			]
		},
		{
			"children":[
				4
			],
			"mesh":5,
			"name":"Cube",
			"rotation":[
				0.012445441447198391,
				-0.007082369644194841,
				0.006519169546663761,
				0.9998762011528015
			],
			"translation":[
				-0.011115849018096924,
				0.48750990629196167,
				0.07003521919250488
			]
		},
		{
			"children":[
				5
			],
			"mesh":6,
			"name":"Circle.002",
			"rotation":[
				0,
				-0.7202900052070618,
				0,
				0.6936731934547424
			],
			"translation":[
				0,
				0.3009316325187683,
				0
			]
		},
		{
			"children":[
				6
			],
			"mesh":7,
			"name":"Circle"
		}
	],
	"animations":[
		{
			"channels":[
				{
					"sampler":0,
					"target":{
						"node":6,
						"path":"rotation"
					}
				}
			],
			"name":"Circle.002Action.001",
			"samplers":[
				{
					"input":32,
					"interpolation":"LINEAR",
					"output":33
				}
			]
		},
		{
			"channels":[
				{
					"sampler":0,
					"target":{
						"node":5,
						"path":"translation"
					}
				},
				{
					"sampler":1,
					"target":{
						"node":5,
						"path":"rotation"
					}
				}
			],
			"name":"CubeAction",
			"samplers":[
				{
					"input":34,
					"interpolation":"LINEAR",
					"output":35
				},
				{
					"input":34,
					"interpolation":"LINEAR",
					"output":36
				}
			]
		},
		{
			"channels":[
				{
					"sampler":0,
					"target":{
						"node":4,
						"path":"rotation"
					}
				}
			],
			"name":"Plane.001Action",
			"samplers":[
				{
					"input":34,
					"interpolation":"LINEAR",
					"output":37
				}
			]
		},
		{
			"channels":[
				{
					"sampler":0,
					"target":{
						"node":3,
						"path":"translation"
					}
				},
				{
					"sampler":1,
					"target":{
						"node":3,
						"path":"rotation"
					}
				},
				{
					"sampler":2,
					"target":{
						"node":3,
						"path":"scale"
					}
				}
			],
			"name":"PlaneAction.001",
			"samplers":[
				{
					"input":32,
					"interpolation":"LINEAR",
					"output":38
				},
				{
					"input":32,
					"interpolation":"LINEAR",
					"output":39
				},
				{
					"input":32,
					"interpolation":"LINEAR",
					"output":40
				}
			]
		},
		{
			"channels":[
				{
					"sampler":0,
					"target":{
						"node":2,
						"path":"translation"
					}
				},
				{
					"sampler":1,
					"target":{
						"node":2,
						"path":"rotation"
					}
				},
				{
					"sampler":2,
					"target":{
						"node":2,
						"path":"scale"
					}
				}
			],
			"name":"Circle.001Action",
			"samplers":[
				{
					"input":34,
					"interpolation":"LINEAR",
					"output":41
				},
				{
					"input":34,
					"interpolation":"LINEAR",
					"output":42
				},
				{
					"input":34,
					"interpolation":"LINEAR",
					"output":43
				}
			]
		},
		{
			"channels":[
				{
					"sampler":0,
					"target":{
						"node":1,
						"path":"rotation"
					}
				}
			],
			"name":"Plane.003Action",
			"samplers":[
				{
					"input":34,
					"interpolation":"LINEAR",
					"output":44
				}
			]
		}
	],
	"meshes":[
		{
			"name":"Plane.004",
			"primitives":[
				{
					"attributes":{
						"POSITION":0,
						"NORMAL":1,
						"TEXCOORD_0":2
					},
					"indices":3
				}
			]
		},
		{
			"name":"Plane.003",
			"primitives":[
				{
					"attributes":{
						"POSITION":4,
						"NORMAL":5,
						"TEXCOORD_0":6
					},
					"indices":7
				}
			]
		},
		{
			"name":"Circle.001",
			"primitives":[
				{
					"attributes":{
						"POSITION":8,
						"NORMAL":9,
						"TEXCOORD_0":10
					},
					"indices":11
				}
			]
		},
		{
			"name":"Plane.009",
			"primitives":[
				{
					"attributes":{
						"POSITION":12,
						"NORMAL":13,
						"TEXCOORD_0":14
					},
					"indices":15
				}
			]
		},
		{
			"name":"Plane.001",
			"primitives":[
				{
					"attributes":{
						"POSITION":16,
						"NORMAL":17,
						"TEXCOORD_0":18
					},
					"indices":19
				}
			]
		},
		{
			"name":"Cube.001",
			"primitives":[
				{
					"attributes":{
						"POSITION":20,
						"NORMAL":21,
						"TEXCOORD_0":22
					},
					"indices":23
				}
			]
		},
		{
			"name":"Circle.003",
			"primitives":[
				{
					"attributes":{
						"POSITION":24,
						"NORMAL":25,
						"TEXCOORD_0":26
					},
					"indices":27
				}
			]
		},
		{
			"name":"Circle.004",
			"primitives":[
				{
					"attributes":{
						"POSITION":28,
						"NORMAL":29,
						"TEXCOORD_0":30
					},
					"indices":31
				}
			]
		}
	],
	"accessors":[
		{
			"bufferView":0,
			"componentType":5126,
			"count":8,
			"max":[
				0.15430009365081787,
				1.2283223867416382,
				0.15430009365081787
			],
			"min":[
				-0.15430009365081787,
				0,
				-0.15430009365081787
			],
			"type":"VEC3"
		},
		{
			"bufferView":1,
			"componentType":5126,
			"count":8,
			"type":"VEC3"
		},
		{
			"bufferView":2,
			"componentType":5126,
			"count":8,
			"type":"VEC2"
		},
		{
			"bufferView":3,
			"componentType":5123,
			"count":36,
			"type":"SCALAR"
		},
		{
			"bufferView":4,
			"componentType":5126,
			"count":12,
			"max":[
				0.1883835792541504,
				0.586905300617218,
				1.3055998086929321
			],
			"min":[
				-0.1883835792541504,
				0,
				-1.3055998086929321
			],
			"type":"VEC3"
		},
		{
			"bufferView":5,
			"componentType":5126,
			"count":12,
			"type":"VEC3"
		},
		{
			"bufferView":6,
			"componentType":5126,
			"count":12,
			"type":"VEC2"
		},
		{
			"bufferView":7,
			"componentType":5123,
			"count":60,
			"type":"SCALAR"
		},
		{
			"bufferView":8,
			"componentType":5126,
			"count":64,
			"max":[
				0.4523218870162964,
				0.12672963738441467,
				0.4523218870162964
			],
			"min":[
				-0.4523218870162964,
				-5.223065500103985e-07,
				-0.4523218870162964
			],
			"type":"VEC3"
		},
		{
			"bufferView":9,
			"componentType":5126,
			"count":64,
			"type":"VEC3"
		},
		{
			"bufferView":10,
			"componentType":5126,
			"count":64,
			"type":"VEC2"
		},
		{
			"bufferView":11,
			"componentType":5123,
			"count":372,
			"type":"SCALAR"
		},
		{
			"bufferView":12,
			"componentType":5126,
			"count":84,
			"max":[
				0.09647011756896973,
				0.15212947130203247,
				0.06673413515090942
			],
			"min":[
				-0.09647190570831299,
				0.02539670467376709,
				-0.06673413515090942
			],
			"type":"VEC3"
		},
		{
			"bufferView":13,
			"componentType":5126,
			"count":84,
			"type":"VEC3"
		},
		{
			"bufferView":14,
			"componentType":5126,
			"count":84,
			"type":"VEC2"
		},
		{
			"bufferView":15,
			"componentType":5123,
			"count":156,
			"type":"SCALAR"
		},
		{
			"bufferView":16,
			"componentType":5126,
			"count":54,
			"max":[
				0.2302226424217224,
				2.415431022644043,
				0.2302226424217224
			],
			"min":[
				-0.2302226424217224,
				-0.06352227926254272,
				-0.2302226424217224
			],
			"type":"VEC3"
		},
		{
			"bufferView":17,
			"componentType":5126,
			"count":54,
			"type":"VEC3"
		},
		{
			"bufferView":18,
			"componentType":5126,
			"count":54,
			"type":"VEC2"
		},
		{
			"bufferView":19,
			"componentType":5123,
			"count":276,
			"type":"SCALAR"
		},
		{
			"bufferView":20,
			"componentType":5126,
			"count":124,
			"max":[
				0.34062206745147705,
				4.643542289733887,
				0.22517287731170654
			],
			"min":[
				-0.3555832803249359,
				-0.34592556953430176,
				-0.21991626918315887
			],
			"type":"VEC3"
		},
		{
			"bufferView":21,
			"componentType":5126,
			"count":124,
			"type":"VEC3"
		},
		{
			"bufferView":22,
			"componentType":5126,
			"count":124,
			"type":"VEC2"
		},
		{
			"bufferView":23,
			"componentType":5123,
			"count":294,
			"type":"SCALAR"
		},
		{
			"bufferView":24,
			"componentType":5126,
			"count":296,
			"max":[
				0.6051400303840637,
				0.5873309373855591,
				0.6051400303840637
			],
			"min":[
				-0.6051400303840637,
				0,
				-0.6051400303840637
			],
			"type":"VEC3"
		},
		{
			"bufferView":25,
			"componentType":5126,
			"count":296,
			"type":"VEC3"
		},
		{
			"bufferView":26,
			"componentType":5126,
			"count":296,
			"type":"VEC2"
		},
		{
			"bufferView":27,
			"componentType":5123,
			"count":576,
			"type":"SCALAR"
		},
		{
			"bufferView":28,
			"componentType":5126,
			"count":192,
			"max":[
				1,
				0.2867908775806427,
				1
			],
			"min":[
				-1,
				0,
				-1
			],
			"type":"VEC3"
		},
		{
			"bufferView":29,
			"componentType":5126,
			"count":192,
			"type":"VEC3"
		},
		{
			"bufferView":30,
			"componentType":5126,
			"count":192,
			"type":"VEC2"
		},
		{
			"bufferView":31,
			"componentType":5123,
			"count":372,
			"type":"SCALAR"
		},
		{
			"bufferView":32,
			"componentType":5126,
			"count":1,
			"max":[
				3.8333333333333335
			],
			"min":[
				3.8333333333333335
			],
			"type":"SCALAR"
		},
		{
			"bufferView":33,
			"componentType":5126,
			"count":1,
			"type":"VEC4"
		},
		{
			"bufferView":34,
			"componentType":5126,
			"count":2,
			"max":[
				3.8333333333333335
			],
			"min":[
				3.7916666666666665
			],
			"type":"SCALAR"
		},
		{
			"bufferView":35,
			"componentType":5126,
			"count":2,
			"type":"VEC3"
		},
		{
			"bufferView":36,
			"componentType":5126,
			"count":2,
			"type":"VEC4"
		},
		{
			"bufferView":37,
			"componentType":5126,
			"count":2,
			"type":"VEC4"
		},
		{
			"bufferView":38,
			"componentType":5126,
			"count":1,
			"type":"VEC3"
		},
		{
			"bufferView":39,
			"componentType":5126,
			"count":1,
			"type":"VEC4"
		},
		{
			"bufferView":40,
			"componentType":5126,
			"count":1,
			"type":"VEC3"
		},
		{
			"bufferView":41,
			"componentType":5126,
			"count":2,
			"type":"VEC3"
		},
		{
			"bufferView":42,
			"componentType":5126,
			"count":2,
			"type":"VEC4"
		},
		{
			"bufferView":43,
			"componentType":5126,
			"count":2,
			"type":"VEC3"
		},
		{
			"bufferView":44,
			"componentType":5126,
			"count":2,
			"type":"VEC4"
		}
	],
	"bufferViews":[
		{
			"buffer":0,
			"byteLength":96,
			"byteOffset":0,
			"target":34962
		},
		{
			"buffer":0,
			"byteLength":96,
			"byteOffset":96,
			"target":34962
		},
		{
			"buffer":0,
			"byteLength":64,
			"byteOffset":192,
			"target":34962
		},
		{
			"buffer":0,
			"byteLength":72,
			"byteOffset":256,
			"target":34963
		},
		{
			"buffer":0,
			"byteLength":144,
			"byteOffset":328,
			"target":34962
		},
		{
			"buffer":0,
			"byteLength":144,
			"byteOffset":472,
			"target":34962
		},
		{
			"buffer":0,
			"byteLength":96,
			"byteOffset":616,
			"target":34962
		},
		{
			"buffer":0,
			"byteLength":120,
			"byteOffset":712,
			"target":34963
		},
		{
			"buffer":0,
			"byteLength":768,
			"byteOffset":832,
			"target":34962
		},
		{
			"buffer":0,
			"byteLength":768,
			"byteOffset":1600,
			"target":34962
		},
		{
			"buffer":0,
			"byteLength":512,
			"byteOffset":2368,
			"target":34962
		},
		{
			"buffer":0,
			"byteLength":744,
			"byteOffset":2880,
			"target":34963
		},
		{
			"buffer":0,
			"byteLength":1008,
			"byteOffset":3624,
			"target":34962
		},
		{
			"buffer":0,
			"byteLength":1008,
			"byteOffset":4632,
			"target":34962
		},
		{
			"buffer":0,
			"byteLength":672,
			"byteOffset":5640,
			"target":34962
		},
		{
			"buffer":0,
			"byteLength":312,
			"byteOffset":6312,
			"target":34963
		},
		{
			"buffer":0,
			"byteLength":648,
			"byteOffset":6624,
			"target":34962
		},
		{
			"buffer":0,
			"byteLength":648,
			"byteOffset":7272,
			"target":34962
		},
		{
			"buffer":0,
			"byteLength":432,
			"byteOffset":7920,
			"target":34962
		},
		{
			"buffer":0,
			"byteLength":552,
			"byteOffset":8352,
			"target":34963
		},
		{
			"buffer":0,
			"byteLength":1488,
			"byteOffset":8904,
			"target":34962
		},
		{
			"buffer":0,
			"byteLength":1488,
			"byteOffset":10392,
			"target":34962
		},
		{
			"buffer":0,
			"byteLength":992,
			"byteOffset":11880,
			"target":34962
		},
		{
			"buffer":0,
			"byteLength":588,
			"byteOffset":12872,
			"target":34963
		},
		{
			"buffer":0,
			"byteLength":3552,
			"byteOffset":13460,
			"target":34962
		},
		{
			"buffer":0,
			"byteLength":3552,
			"byteOffset":17012,
			"target":34962
		},
		{
			"buffer":0,
			"byteLength":2368,
			"byteOffset":20564,
			"target":34962
		},
		{
			"buffer":0,
			"byteLength":1152,
			"byteOffset":22932,
			"target":34963
		},
		{
			"buffer":0,
			"byteLength":2304,
			"byteOffset":24084,
			"target":34962
		},
		{
			"buffer":0,
			"byteLength":2304,
			"byteOffset":26388,
			"target":34962
		},
		{
			"buffer":0,
			"byteLength":1536,
			"byteOffset":28692,
			"target":34962
		},
		{
			"buffer":0,
			"byteLength":744,
			"byteOffset":30228,
			"target":34963
		},
		{
			"buffer":0,
			"byteLength":4,
			"byteOffset":30972
		},
		{
			"buffer":0,
			"byteLength":16,
			"byteOffset":30976
		},
		{
			"buffer":0,
			"byteLength":8,
			"byteOffset":30992
		},
		{
			"buffer":0,
			"byteLength":24,
			"byteOffset":31000
		},
		{
			"buffer":0,
			"byteLength":32,
			"byteOffset":31024
		},
		{
			"buffer":0,
			"byteLength":32,
			"byteOffset":31056
		},
		{
			"buffer":0,
			"byteLength":12,
			"byteOffset":31088
		},
		{
			"buffer":0,
			"byteLength":16,
			"byteOffset":31100
		},
		{
			"buffer":0,
			"byteLength":12,
			"byteOffset":31116
		},
		{
			"buffer":0,
			"byteLength":24,
			"byteOffset":31128
		},
		{
			"buffer":0,
			"byteLength":32,
			"byteOffset":31152
		},
		{
			"buffer":0,
			"byteLength":24,
			"byteOffset":31184
		},
		{
			"buffer":0,
			"byteLength":32,
			"byteOffset":31208
		}
	],
	"buffers":[
		{
			"byteLength":31240,
			"uri":"roboticsfinal%5B1%5D.bin"
		}
	]
}
